<svg width="48" height="38" viewBox="0 0 48 38" fill="none" xmlns="http://www.w3.org/2000/svg">
<path fill-rule="evenodd" clip-rule="evenodd" d="M29.6565 0.587435C30.0843 0.231138 30.6361 0.0593052 31.1906 0.109711C31.745 0.160116 32.2568 0.428635 32.6133 0.856236L46.6119 17.6562C46.9527 18.0857 47.112 18.6314 47.0558 19.1767C46.9996 19.7221 46.7324 20.2238 46.3113 20.5748C45.8901 20.9258 45.3484 21.0981 44.8019 21.055C44.2553 21.0119 43.7473 20.7569 43.3863 20.3442L29.3877 3.54423C29.0314 3.11643 28.8596 2.56465 28.91 2.01019C28.9604 1.45573 29.2289 0.943977 29.6565 0.587435Z" fill="#7A4F0F"/>
<path fill-rule="evenodd" clip-rule="evenodd" d="M29.6565 37.4131C29.2289 37.0565 28.9604 36.5448 28.91 35.9903C28.8596 35.4358 29.0314 34.8841 29.3877 34.4563L43.3863 17.6563C43.7473 17.2436 44.2553 16.9885 44.8019 16.9455C45.3484 16.9024 45.8901 17.0747 46.3113 17.4257C46.7324 17.7767 46.9996 18.2784 47.0558 18.8238C47.112 19.3691 46.9527 19.9148 46.6119 20.3443L32.6133 37.1443C32.2568 37.5719 31.745 37.8404 31.1906 37.8908C30.6361 37.9412 30.0843 37.7694 29.6565 37.4131Z" fill="#7A4F0F"/>
<path fill-rule="evenodd" clip-rule="evenodd" d="M44.9994 19.0006C44.9994 19.5575 44.7781 20.0917 44.3843 20.4855C43.9905 20.8793 43.4563 21.1006 42.8994 21.1006L2.99941 21.1006C2.44246 21.1006 1.90832 20.8793 1.51449 20.4855C1.12066 20.0917 0.899414 19.5575 0.899414 19.0006C0.899414 18.4436 1.12066 17.9095 1.51449 17.5157C1.90832 17.1218 2.44246 16.9006 2.99941 16.9006L42.8994 16.9006C43.4563 16.9006 43.9905 17.1218 44.3843 17.5157C44.7781 17.9095 44.9994 18.4436 44.9994 19.0006Z" fill="#7A4F0F"/>
</svg>
