<svg width="55" height="52" viewBox="0 0 55 52" fill="none" xmlns="http://www.w3.org/2000/svg">
<g opacity="0.2">
<path fill-rule="evenodd" clip-rule="evenodd" d="M24.4318 49.7567C23.7962 50.2866 23.0624 50.6861 22.2724 50.9324C21.4824 51.1786 20.6516 51.2669 19.8274 51.192C19.0033 51.1171 18.202 50.8806 17.4693 50.4959C16.7366 50.1113 16.0869 49.5861 15.5572 48.9503L1.55859 32.1503C1.00547 31.5181 0.584383 30.7816 0.320097 29.9842C0.0558128 29.1868 -0.0463276 28.3446 0.0196819 27.5071C0.0856915 26.6697 0.318518 25.8539 0.704466 25.1077C1.09042 24.3616 1.62169 23.7001 2.26703 23.1624C2.91238 22.6246 3.65877 22.2213 4.46228 21.9762C5.26579 21.7311 6.1102 21.6492 6.94583 21.7353C7.78146 21.8214 8.59144 22.0737 9.3281 22.4775C10.0648 22.8812 10.7133 23.4282 11.2354 24.0863L25.2382 40.8863C26.3071 42.1697 26.8226 43.8251 26.6714 45.4884C26.5202 47.1518 25.7146 48.6871 24.4318 49.7567Z" fill="#7A4F0F"/>
<path fill-rule="evenodd" clip-rule="evenodd" d="M24.4318 6.47967C25.7146 7.54929 26.5202 9.08455 26.6714 10.7479C26.8226 12.4113 26.3071 14.0666 25.2382 15.3501L11.2354 32.1501C10.7133 32.8081 10.0648 33.3551 9.3281 33.7589C8.59144 34.1626 7.78146 34.415 6.94583 34.5011C6.1102 34.5871 5.26579 34.5052 4.46228 34.2602C3.65877 34.0151 2.91238 33.6118 2.26703 33.074C1.62169 32.5362 1.09042 31.8748 0.704466 31.1287C0.318518 30.3825 0.0856915 29.5667 0.0196819 28.7293C-0.0463276 27.8918 0.0558128 27.0496 0.320097 26.2522C0.584383 25.4548 1.00547 24.7183 1.55859 24.0861L15.5572 7.28607C16.0869 6.65027 16.7366 6.12506 17.4693 5.74043C18.202 5.3558 19.0033 5.11929 19.8274 5.0444C20.6516 4.96952 21.4824 5.05773 22.2724 5.304C23.0624 5.55026 23.7962 5.94976 24.4318 6.47967Z" fill="#7A4F0F"/>
<path fill-rule="evenodd" clip-rule="evenodd" d="M8.49725 28.1184C8.49725 26.4475 9.161 24.8451 10.3425 23.6636C11.524 22.4821 13.1264 21.8184 14.7973 21.8184L48.3973 21.8184C50.0681 21.8184 51.6706 22.4821 52.852 23.6636C54.0335 24.8451 54.6973 26.4475 54.6973 28.1184C54.6973 29.7892 54.0335 31.3917 52.852 32.5731C51.6706 33.7546 50.0681 34.4184 48.3973 34.4184L14.7973 34.4184C13.1264 34.4184 11.524 33.7546 10.3425 32.5731C9.161 31.3917 8.49725 29.7892 8.49725 28.1184Z" fill="#7A4F0F"/>
</g>
<path fill-rule="evenodd" clip-rule="evenodd" d="M23.8396 37.312C23.4118 37.6683 22.86 37.8401 22.3055 37.7897C21.7511 37.7393 21.2393 37.4708 20.8828 37.0432L6.88416 20.2432C6.54341 19.8137 6.3841 19.268 6.44028 18.7227C6.49647 18.1773 6.76368 17.6756 7.18484 17.3246C7.606 16.9737 8.14771 16.8013 8.69424 16.8444C9.24077 16.8875 9.74879 17.1426 10.1098 17.5552L24.1084 34.3552C24.4647 34.783 24.6365 35.3348 24.5861 35.8892C24.5357 36.4437 24.2672 36.9554 23.8396 37.312Z" fill="#7A4F0F"/>
<path fill-rule="evenodd" clip-rule="evenodd" d="M23.8396 0.486354C24.2672 0.842897 24.5357 1.35465 24.5861 1.90911C24.6365 2.46356 24.4647 3.01535 24.1084 3.44315L10.1098 20.2432C9.74879 20.6558 9.24077 20.9109 8.69424 20.9539C8.14771 20.997 7.606 20.8247 7.18484 20.4737C6.76368 20.1227 6.49647 19.621 6.44028 19.0756C6.3841 18.5303 6.54341 17.9846 6.88416 17.5552L20.8828 0.755153C21.2393 0.327552 21.7511 0.0590355 22.3055 0.00863014C22.86 -0.0417752 23.4118 0.130058 23.8396 0.486354Z" fill="#7A4F0F"/>
<path fill-rule="evenodd" clip-rule="evenodd" d="M8.49768 18.8988C8.49768 18.3419 8.71893 17.8077 9.11275 17.4139C9.50658 17.0201 10.0407 16.7988 10.5977 16.7988L50.4977 16.7988C51.0546 16.7988 51.5888 17.0201 51.9826 17.4139C52.3764 17.8077 52.5977 18.3419 52.5977 18.8988C52.5977 19.4558 52.3764 19.9899 51.9826 20.3838C51.5888 20.7776 51.0546 20.9988 50.4977 20.9988L10.5977 20.9988C10.0407 20.9988 9.50658 20.7776 9.11275 20.3838C8.71893 19.9899 8.49768 19.4558 8.49768 18.8988Z" fill="#7A4F0F"/>
</svg>
