<svg width="56" height="51" viewBox="0 0 56 51" fill="none" xmlns="http://www.w3.org/2000/svg">
<g opacity="0.2">
<path fill-rule="evenodd" clip-rule="evenodd" d="M31.0653 6.1427C31.7009 5.61279 32.4346 5.2133 33.2247 4.96704C34.0147 4.72077 34.8455 4.63256 35.6696 4.70745C36.4937 4.78233 37.295 5.01884 38.0277 5.40347C38.7604 5.7881 39.4102 6.31332 39.9399 6.94911L53.9385 23.7491C54.4916 24.3814 54.9127 25.1179 55.177 25.9153C55.4413 26.7126 55.5434 27.5548 55.4774 28.3923C55.4114 29.2298 55.1786 30.0456 54.7926 30.7917C54.4067 31.5378 53.8754 32.1993 53.23 32.7371C52.5847 33.2748 51.8383 33.6781 51.0348 33.9232C50.2313 34.1683 49.3869 34.2502 48.5512 34.1641C47.7156 34.078 46.9056 33.8257 46.169 33.4219C45.4323 33.0182 44.7838 32.4712 44.2617 31.8131L30.2589 15.0131C29.19 13.7297 28.6745 12.0743 28.8257 10.411C28.9769 8.74759 29.7825 7.21233 31.0653 6.1427Z" fill="#7A4F0F"/>
<path fill-rule="evenodd" clip-rule="evenodd" d="M31.0653 49.4197C29.7825 48.3501 28.9769 46.8149 28.8257 45.1515C28.6745 43.4881 29.19 41.8328 30.2589 40.5493L44.2617 23.7493C44.7838 23.0913 45.4323 22.5443 46.169 22.1405C46.9056 21.7368 47.7156 21.4844 48.5512 21.3984C49.3869 21.3123 50.2313 21.3942 51.0348 21.6392C51.8383 21.8843 52.5847 22.2876 53.23 22.8254C53.8754 23.3632 54.4067 24.0246 54.7926 24.7708C55.1786 25.5169 55.4114 26.3327 55.4774 27.1702C55.5434 28.0076 55.4413 28.8498 55.177 29.6472C54.9127 30.4446 54.4916 31.1811 53.9385 31.8133L39.9399 48.6133C39.4102 49.2491 38.7604 49.7744 38.0277 50.159C37.295 50.5436 36.4937 50.7801 35.6696 50.855C34.8455 50.9299 34.0147 50.8417 33.2247 50.5954C32.4346 50.3492 31.7009 49.9497 31.0653 49.4197Z" fill="#7A4F0F"/>
<path fill-rule="evenodd" clip-rule="evenodd" d="M46.9998 27.7811C46.9998 29.4519 46.3361 31.0543 45.1546 32.2358C43.9731 33.4173 42.3707 34.0811 40.6998 34.0811H7.09981C5.42894 34.0811 3.82651 33.4173 2.64503 32.2358C1.46355 31.0543 0.799805 29.4519 0.799805 27.7811C0.799805 26.1102 1.46355 24.5078 2.64503 23.3263C3.82651 22.1448 5.42894 21.481 7.09981 21.481H40.6998C42.3707 21.481 43.9731 22.1448 45.1546 23.3263C46.3361 24.5078 46.9998 26.1102 46.9998 27.7811Z" fill="#7A4F0F"/>
</g>
<path fill-rule="evenodd" clip-rule="evenodd" d="M31.6575 0.587435C32.0853 0.231138 32.6371 0.0593052 33.1915 0.109711C33.746 0.160116 34.2578 0.428635 34.6143 0.856236L48.6129 17.6562C48.9537 18.0857 49.113 18.6314 49.0568 19.1767C49.0006 19.7221 48.7334 20.2238 48.3122 20.5748C47.8911 20.9258 47.3494 21.0981 46.8028 21.055C46.2563 21.0119 45.7483 20.7569 45.3873 20.3442L31.3887 3.54423C31.0324 3.11643 30.8606 2.56465 30.911 2.01019C30.9614 1.45573 31.2299 0.943977 31.6575 0.587435Z" fill="#7A4F0F"/>
<path fill-rule="evenodd" clip-rule="evenodd" d="M31.6575 37.4131C31.2299 37.0565 30.9614 36.5448 30.911 35.9903C30.8606 35.4358 31.0324 34.8841 31.3887 34.4563L45.3873 17.6563C45.7483 17.2436 46.2563 16.9885 46.8028 16.9455C47.3494 16.9024 47.8911 17.0747 48.3122 17.4257C48.7334 17.7767 49.0006 18.2784 49.0568 18.8238C49.113 19.3691 48.9537 19.9148 48.6129 20.3443L34.6143 37.1443C34.2578 37.5719 33.746 37.8404 33.1915 37.8908C32.6371 37.9412 32.0853 37.7694 31.6575 37.4131Z" fill="#7A4F0F"/>
<path fill-rule="evenodd" clip-rule="evenodd" d="M46.9994 19.0006C46.9994 19.5575 46.7781 20.0917 46.3843 20.4855C45.9905 20.8793 45.4563 21.1006 44.8994 21.1006L4.99941 21.1006C4.44246 21.1006 3.90832 20.8793 3.51449 20.4855C3.12066 20.0917 2.89941 19.5575 2.89941 19.0006C2.89941 18.4436 3.12066 17.9095 3.51449 17.5157C3.90832 17.1218 4.44246 16.9006 4.99941 16.9006L44.8994 16.9006C45.4563 16.9006 45.9905 17.1218 46.3843 17.5157C46.7781 17.9095 46.9994 18.4436 46.9994 19.0006Z" fill="#7A4F0F"/>
</svg>
