<svg width="47" height="38" viewBox="0 0 47 38" fill="none" xmlns="http://www.w3.org/2000/svg">
<path fill-rule="evenodd" clip-rule="evenodd" d="M17.4109 37.312C16.9831 37.6683 16.4313 37.8401 15.8768 37.7897C15.3224 37.7393 14.8106 37.4708 14.4541 37.0432L0.455452 20.2432C0.114695 19.8137 -0.0446091 19.268 0.0115738 18.7227C0.0677567 18.1773 0.334969 17.6756 0.756128 17.3246C1.17729 16.9737 1.719 16.8013 2.26553 16.8444C2.81206 16.8875 3.32008 17.1426 3.68105 17.5552L17.6797 34.3552C18.036 34.783 18.2078 35.3348 18.1574 35.8892C18.107 36.4437 17.8385 36.9554 17.4109 37.312Z" fill="#7A4F0F"/>
<path fill-rule="evenodd" clip-rule="evenodd" d="M17.4109 0.486354C17.8385 0.842897 18.107 1.35465 18.1574 1.90911C18.2078 2.46356 18.036 3.01535 17.6797 3.44315L3.68105 20.2432C3.32008 20.6558 2.81206 20.9109 2.26553 20.9539C1.719 20.997 1.17729 20.8247 0.756128 20.4737C0.334969 20.1227 0.0677567 19.621 0.0115738 19.0756C-0.0446091 18.5303 0.114695 17.9846 0.455452 17.5552L14.4541 0.755153C14.8106 0.327552 15.3224 0.0590355 15.8768 0.00863014C16.4313 -0.0417752 16.9831 0.130058 17.4109 0.486354Z" fill="#7A4F0F"/>
<path fill-rule="evenodd" clip-rule="evenodd" d="M2.06799 18.8988C2.06799 18.3419 2.28924 17.8077 2.68306 17.4139C3.07689 17.0201 3.61103 16.7988 4.16799 16.7988L44.068 16.7988C44.6249 16.7988 45.1591 17.0201 45.5529 17.4139C45.9467 17.8077 46.168 18.3419 46.168 18.8988C46.168 19.4558 45.9467 19.9899 45.5529 20.3838C45.1591 20.7776 44.6249 20.9988 44.068 20.9988L4.16799 20.9988C3.61103 20.9988 3.07689 20.7776 2.68306 20.3838C2.28924 19.9899 2.06799 19.4558 2.06799 18.8988Z" fill="#7A4F0F"/>
</svg>
