<svg width="119" height="77" viewBox="0 0 119 77" fill="none" xmlns="http://www.w3.org/2000/svg">
<g clip-path="url(#clip0_833_722)">
<path d="M36.3769 21.9189C36.3285 22.2427 36.2516 22.4401 36.1549 22.6191C36.006 22.8896 35.65 23.4868 34.9314 23.1005L33.511 22.3355C32.8159 21.9623 33.09 21.3203 33.2369 21.0498C33.3406 20.8606 33.4891 20.6865 33.688 20.4727C33.6966 20.471 33.7033 20.4595 33.7082 20.4476C33.7318 20.4082 33.7082 20.3795 33.688 20.3614C33.633 20.3101 33.6164 20.3015 33.5763 20.2785C33.5461 20.2637 33.5077 20.2653 33.4576 20.29C33.2485 20.4526 32.978 20.8507 32.9193 20.9603C32.684 21.3934 32.4698 22.1565 33.3791 22.6458L34.7593 23.3875C35.6752 23.8801 36.1681 23.2664 36.4038 22.8346C36.4724 22.7089 36.6544 22.2924 36.6962 22.0383C36.6879 21.9824 36.673 21.9439 36.6428 21.9291C36.5888 21.898 36.531 21.874 36.4707 21.8577C36.4456 21.8511 36.4104 21.8478 36.3872 21.8876C36.3819 21.8991 36.3753 21.9103 36.3769 21.9189Z" fill="#545454"/>
<path d="M35.5122 17.0224C35.0511 17.6196 35.2066 18.2251 35.6528 18.5634L37.1902 19.7348C37.6247 20.0649 38.1962 20.0135 38.6573 19.4163C39.1187 18.8191 39.0219 18.2567 38.5873 17.9263L37.048 16.7552C36.6034 16.4169 35.9736 16.4251 35.5122 17.0224ZM38.4017 19.2205C38.1577 19.5374 37.7716 19.7562 37.3539 19.4377L35.915 18.3429C35.4439 17.9842 35.5242 17.5351 35.7698 17.2182C36.0138 16.9013 36.4298 16.7072 36.9011 17.0655L38.3401 18.1603C38.7594 18.4788 38.6457 18.9036 38.4017 19.2205Z" fill="#545454"/>
<path d="M38.2155 14.1968L40.7039 16.7898C40.7543 16.8411 40.8242 16.8563 40.8862 16.798L40.9479 16.7401C41.0099 16.6802 40.9983 16.6108 40.9479 16.5591L39.8016 15.3646L40.7944 14.4258C40.8362 14.3844 40.8428 14.3429 40.801 14.2998L40.6923 14.1869C40.6555 14.1488 40.6137 14.1521 40.5703 14.1935L39.5775 15.1323L38.5901 14.104L39.86 12.9029C39.9034 12.8615 39.9087 12.8197 39.8686 12.7782L39.7681 12.6739C39.7511 12.6566 39.728 12.6466 39.7037 12.646C39.6794 12.6454 39.6557 12.6542 39.6379 12.6706L38.2155 14.0158C38.1522 14.0757 38.1655 14.1455 38.2155 14.1968Z" fill="#545454"/>
<path d="M41.7869 11.1098L43.854 14.0443C43.8958 14.1022 43.9611 14.1289 44.0314 14.0792L44.1013 14.0312C44.1732 13.9828 44.1716 13.9117 44.1298 13.8518L43.1772 12.4997L44.3002 11.7198C44.3506 11.6869 44.3622 11.6471 44.327 11.5974L44.2369 11.4698C44.2067 11.4263 44.165 11.423 44.1166 11.4579L42.9919 12.2378L42.1711 11.0729L43.6101 10.0759C43.6585 10.0413 43.6704 10.0015 43.6353 9.95344L43.5534 9.83564C43.5391 9.81602 43.5177 9.80266 43.4938 9.79836C43.4698 9.79406 43.445 9.79917 43.4248 9.81261L41.8138 10.9304C41.7435 10.9801 41.7452 11.0499 41.7869 11.1098Z" fill="#545454"/>
<path d="M47.6041 7.55404L45.8426 8.4165C45.7657 8.45303 45.7558 8.52443 45.7873 8.58926L47.3817 11.8009C47.4151 11.8641 47.4768 11.9003 47.5537 11.8624L49.3152 10.9996C49.3689 10.9746 49.3871 10.9364 49.3602 10.8835L49.2936 10.7492C49.2668 10.6959 49.2267 10.686 49.1733 10.7127L47.5991 11.4824L46.9487 10.1734L48.1805 9.57117C48.2322 9.54485 48.2508 9.50668 48.2239 9.45337L48.1553 9.31253C48.1321 9.26581 48.0904 9.25758 48.0367 9.28259L46.8069 9.88477L46.1734 8.61065L47.7476 7.84065C47.8013 7.81597 47.8179 7.77813 47.7927 7.72482L47.7277 7.5955C47.7166 7.57395 47.6975 7.55755 47.6744 7.5498C47.6513 7.54206 47.6261 7.54358 47.6041 7.55404Z" fill="#545454"/>
<path d="M52.147 5.92586L50.2719 6.51158C50.19 6.53626 50.1701 6.60405 50.1917 6.67381L51.2729 10.0894C51.2945 10.1576 51.3498 10.2026 51.4317 10.1776L53.3069 9.59191C53.3636 9.57381 53.3868 9.53893 53.3702 9.48431L53.3235 9.33985C53.3069 9.28358 53.2668 9.26845 53.2098 9.28687L51.5371 9.80777L51.0959 8.41585L52.4043 8.00782C52.461 7.98939 52.4845 7.95451 52.4663 7.89824L52.4192 7.74885C52.4043 7.69916 52.3642 7.68402 52.3075 7.7008L50.9988 8.10884L50.5709 6.75344L52.2438 6.23254C52.3005 6.21444 52.3241 6.17956 52.3058 6.12296L52.2624 5.98706C52.2548 5.96406 52.2386 5.94484 52.2171 5.93344C52.1956 5.92203 52.1705 5.91931 52.147 5.92586Z" fill="#545454"/>
<path d="M60.5344 8.48472L60.2603 7.85424C60.1635 7.63048 59.8042 7.02501 59.5619 6.92531L59.5334 6.88714C60.2069 6.74926 60.3909 6.30141 60.3674 5.81868C60.3405 5.26948 60.0482 4.80518 59.119 4.84795L58.0795 4.89797C57.9927 4.90126 57.9559 4.9628 57.9592 5.03387L58.1316 8.61075C58.1349 8.68216 58.1766 8.74007 58.2618 8.73514L58.3487 8.73185C58.4339 8.72691 58.4707 8.66702 58.4673 8.59397L58.3888 6.96019L59.0739 6.9286C59.4283 7.16092 59.8443 7.70518 60.008 8.08985L60.2086 8.55942C60.2305 8.61733 60.2772 8.6407 60.3442 8.63741L60.4025 8.63412C60.496 8.63083 60.5394 8.58245 60.5344 8.48472ZM58.3739 6.63968L58.3053 5.20827L59.0421 5.17339C59.4449 5.15365 59.9981 5.12864 60.0316 5.83349C60.0651 6.54689 59.5135 6.58704 59.1107 6.60513L58.3739 6.63968Z" fill="#545454"/>
<path d="M64.0708 4.96153C63.3174 4.87697 62.8745 5.32153 62.8125 5.87566L62.5937 7.78684C62.5334 8.32782 62.8728 8.78718 63.6263 8.87175C64.3801 8.95632 64.813 8.58317 64.8746 8.04252L65.0921 6.13134C65.1554 5.5772 64.8246 5.0461 64.0708 4.96153ZM63.6614 8.55322C63.262 8.50847 62.8762 8.29294 62.9345 7.77335L63.1384 5.98326C63.2053 5.39787 63.6349 5.23531 64.034 5.28006C64.4334 5.32482 64.8163 5.57885 64.7493 6.16425L64.5471 7.95269C64.4871 8.47359 64.0625 8.59797 63.6614 8.55322Z" fill="#545454"/>
<path d="M69.5206 9.98918L69.5256 6.34254C69.5276 6.21321 69.459 6.09903 69.3251 6.06053L69.0009 5.96938C68.869 5.93121 68.7486 5.99242 68.6817 6.10364L66.7482 9.20437C66.7266 9.28071 66.7667 9.33204 66.8118 9.34521L66.9255 9.3768C66.9706 9.38996 67.024 9.39193 67.0826 9.30572L67.6574 8.37974L69.1865 8.81279L69.1815 9.89934C69.1865 10.004 69.2333 10.0306 69.2783 10.0438L69.392 10.0754C69.4371 10.0886 69.4991 10.0655 69.5206 9.98918ZM69.1865 8.47945L67.8344 8.0961L68.9575 6.28956L69.1865 6.35438V8.47945Z" fill="#545454"/>
<path d="M71.7795 10.5432C71.7262 10.5185 71.6894 10.5218 71.6628 10.5465C71.6236 10.5918 71.5914 10.6427 71.5674 10.6976C71.5508 10.7324 71.5525 10.7772 71.579 10.8269C71.7245 11.0112 72.1458 11.2448 72.3294 11.333C73.3607 11.819 73.715 11.2899 73.897 10.9118C74.3949 9.87129 72.6453 8.92261 72.948 8.29048C73.18 7.80446 73.4992 7.88409 74.024 8.13122C74.2488 8.23672 74.4548 8.37787 74.6339 8.54912C74.6809 8.57084 74.726 8.58565 74.7509 8.54748C74.7777 8.50799 74.8013 8.47607 74.8195 8.43461C74.8288 8.41394 74.8328 8.39128 74.8311 8.3687C74.8293 8.34611 74.8219 8.32432 74.8096 8.30529C74.6214 8.11591 74.4029 7.95889 74.1628 7.84066C73.12 7.3497 72.8107 7.79788 72.6321 8.16939C72.2025 9.06838 73.9958 9.92953 73.5877 10.7805C73.2838 11.4123 72.9162 11.2533 72.4146 11.0177C72.1239 10.8802 71.9217 10.691 71.7795 10.5432Z" fill="#545454"/>
<path d="M79.2025 10.8855L77.446 9.69099C77.3976 9.65775 77.3509 9.66598 77.3174 9.71402L77.2389 9.82689C77.2054 9.87658 77.2137 9.92166 77.2641 9.95456L78.0026 10.459L76.0724 13.256C76.0306 13.3143 76.0306 13.3853 76.1009 13.4337L76.1708 13.4818C76.2428 13.5298 76.3081 13.5031 76.3498 13.4436L78.28 10.6466L79.0202 11.1507C79.0686 11.1839 79.1157 11.1757 79.1488 11.126L79.2274 11.0131C79.2609 10.9651 79.2509 10.9184 79.2025 10.8855Z" fill="#545454"/>
<path d="M82.8835 14.0377L81.4515 12.7024C81.3895 12.6428 81.3193 12.6593 81.2709 12.7123L78.801 15.3217C78.7507 15.3734 78.7391 15.4431 78.801 15.501L80.233 16.8383C80.2764 16.8778 80.3182 16.8811 80.3583 16.8383L80.4637 16.7288C80.5038 16.6857 80.4972 16.6442 80.4538 16.6044L79.1769 15.4115L80.183 14.348L81.1824 15.2806C81.2258 15.3201 81.2676 15.3233 81.3093 15.2806L81.4164 15.1661C81.4532 15.1279 81.4482 15.0864 81.4045 15.0466L80.4054 14.1141L81.3846 13.0788L82.6631 14.2717C82.7065 14.3115 82.7483 14.3148 82.7884 14.2717L82.8885 14.1674C82.9047 14.1493 82.9133 14.1257 82.9123 14.1015C82.9114 14.0774 82.9011 14.0545 82.8835 14.0377Z" fill="#545454"/>
<path d="M83.2644 20.2122L83.6254 19.6281C83.7557 19.4192 84.048 18.7805 83.9913 18.5251L84.0063 18.48C84.5061 18.9496 84.9808 18.842 85.3666 18.5449C85.8045 18.2066 86.0183 17.7021 85.4485 16.972L84.8101 16.1559C84.7584 16.0881 84.6864 16.093 84.6298 16.1378L81.7787 18.3326C81.722 18.3754 81.7002 18.4435 81.7519 18.5103L81.8039 18.5781C81.8573 18.6446 81.9276 18.6393 81.9859 18.5962L83.2876 17.5926L83.7089 18.1302C83.7205 18.5514 83.5117 19.2017 83.2876 19.5567L83.0155 19.9898C82.982 20.0414 82.9886 20.0928 83.0287 20.1457L83.0655 20.1921C83.1222 20.2635 83.1875 20.2721 83.2644 20.2122ZM83.5435 17.3968L84.6848 16.5175L85.1376 17.0967C85.3835 17.4136 85.7226 17.8466 85.1611 18.2813C84.593 18.7173 84.2419 18.2912 83.9963 17.9759L83.5435 17.3968Z" fill="#545454"/>
<path d="M84.7354 21.9713C84.7069 21.9197 84.6734 21.8996 84.6386 21.9049C84.5584 21.9246 84.5365 21.9378 84.4729 21.971C84.4381 21.9907 84.4129 22.0259 84.4062 22.0822C84.4145 22.3158 84.6151 22.7525 84.7135 22.9299C85.2585 23.9236 85.8584 23.7032 86.2294 23.5041C87.2487 22.9513 86.3931 21.1632 87.0133 20.8282C87.4877 20.5708 87.7001 20.8216 87.9792 21.3257C88.1078 21.563 88.1847 21.7969 88.2249 22.0207C88.2497 22.0674 88.2782 22.1036 88.3217 22.0872C88.3636 22.074 88.4044 22.0574 88.4436 22.0375C88.4629 22.0256 88.4791 22.0093 88.4908 21.99C88.5024 21.9706 88.5092 21.9487 88.5106 21.9262C88.4715 21.6629 88.3874 21.4081 88.2617 21.173C87.7101 20.1677 87.1936 20.3504 86.8293 20.5478C85.9486 21.024 86.8913 22.7657 86.0573 23.2168C85.4371 23.5521 85.2333 23.2069 84.9678 22.7242C84.814 22.4422 84.7623 22.172 84.7354 21.9713Z" fill="#545454"/>
<path d="M0.165371 31.0028V31.5138L0.245588 32.4793V47.2307L0.165371 48.1961V48.7055H1.54232V48.1961L1.46211 47.2307V40.5781H4.515C8.91866 40.5781 11.8367 38.6472 11.8367 35.7771C11.8367 32.907 9.18948 31.0024 5.19055 31.0024H0.165039L0.165371 31.0028ZM1.46211 31.7277C2.5699 31.7277 4.86637 31.7277 4.89289 31.754C8.27063 31.754 10.5396 33.4181 10.5396 35.885C10.5396 38.2724 8.24345 39.8548 4.78582 39.8548C4.78582 39.8548 3.43406 39.8285 1.46211 39.8285V31.7277Z" fill="#545454"/>
<path d="M16.9229 30.9764V31.4858L17.0031 32.4529V47.2043L16.9229 48.1698V48.6792H18.2998V48.1698L18.2196 47.2043V40.2036H20.6244L27.8374 48.6792H29.4314L22.0833 40.1223C24.5684 39.7208 27.3793 37.9772 27.3793 35.5368C27.3793 32.8014 25.0013 30.9761 21.4618 30.9761L16.9229 30.9764ZM18.1931 31.7013C19.1921 31.7013 21.1107 31.7013 21.1376 31.7276C24.0821 31.7276 26.054 33.2841 26.054 35.6431C26.054 37.9242 22.8937 39.452 20.5959 39.452H18.1927L18.1931 31.7013Z" fill="#545454"/>
<path d="M41.7048 48.9743C46.9991 48.9743 50.5386 45.353 50.5386 39.9081C50.5386 34.4105 46.9991 30.7358 41.7048 30.7358C36.3823 30.7358 32.8428 34.3555 32.8428 39.7738C32.8428 45.2997 36.3823 48.9743 41.7048 48.9743ZM34.1395 39.3177C34.1395 34.5447 37.0575 31.3795 41.4608 31.3795C46.1353 31.3795 49.2419 34.9728 49.2419 40.3645C49.2419 45.1388 46.3239 48.3027 41.974 48.3027C37.273 48.3027 34.1395 44.7094 34.1395 39.3177Z" fill="#545454"/>
<path d="M55.7305 40.2297C55.7305 45.4337 59.27 48.9191 64.5928 48.9191C67.0242 48.9191 69.4291 48.3568 70.6456 47.5256L70.6989 46.6397L70.3214 46.693C70.1862 46.7743 68.7005 47.5522 68.7005 47.5522C67.484 48.0086 65.9983 48.2755 64.6193 48.2755C60.0539 48.2755 57.0007 44.8964 57.0007 39.8545C57.0007 34.7584 60.1892 31.3789 64.9989 31.3789C66.1869 31.3789 67.4037 31.5928 68.4028 31.9679L68.5649 32.0492C69.0247 32.3181 69.5912 32.6399 70.0506 32.9068C70.1862 32.9068 70.3214 32.8804 70.4835 32.8804L70.4566 31.9962C69.5109 31.218 67.3215 30.6807 64.972 30.6807C59.4321 30.6807 55.7305 34.4895 55.7305 40.2297Z" fill="#545454"/>
<path d="M76.3516 48.7057H88.1849V47.8199H87.7252L86.1593 47.9541H77.6483V39.9613C78.8098 39.9613 79.9978 39.9346 81.161 39.9346C82.3224 39.9346 83.4839 39.9613 84.5652 40.0425H85.1867V39.13C84.5652 39.13 84.0236 39.1567 83.4571 39.2113H77.6483V31.7278C79.2159 31.7278 80.8099 31.7015 82.4027 31.7015C83.9971 31.7015 85.5911 31.7278 87.0503 31.8358H87.5097V31.0029H76.3516V31.514L76.4318 32.4794V47.2308L76.3516 48.1963V48.7057Z" fill="#545454"/>
<path d="M93.3779 45.8626L93.4598 47.6872C95.0539 48.4638 97.1346 49.0012 98.6202 49.0012C101.673 49.0012 103.699 46.9623 103.699 43.905C103.699 41.491 102.133 40.0162 99.0796 39.0241C96.4308 38.1649 95.0539 36.9589 95.0539 35.0276C95.0539 32.8545 96.4577 31.4063 98.5934 31.4063C99.1867 31.4063 100.863 31.7282 101.267 32.2922C101.565 32.614 101.916 33.0684 102.213 33.3902C102.402 33.3902 102.593 33.3639 102.781 33.3639L102.699 31.9967C101.727 31.2454 100.133 30.7627 98.729 30.7627C95.8378 30.7627 93.8924 32.6406 93.8924 35.4824C93.8924 37.6822 95.3515 39.0241 98.1605 39.9349C101.052 40.874 102.537 42.1613 102.537 44.2268C102.537 46.6935 100.97 48.3575 98.6471 48.3575C97.9182 48.3575 96.5664 47.9811 95.1076 47.3654C95.0503 47.3345 95.0033 47.2879 94.972 47.2312C94.6478 46.8014 94.2703 46.2657 93.9461 45.8359H93.6484C93.5682 45.8359 93.4598 45.8626 93.3779 45.8626Z" fill="#545454"/>
<path d="M108.514 45.8626L108.596 47.6872C110.19 48.4638 112.271 49.0012 113.756 49.0012C116.81 49.0012 118.835 46.9623 118.835 43.905C118.835 41.491 117.269 40.0162 114.216 39.0241C111.567 38.1649 110.19 36.9589 110.19 35.0276C110.19 32.8545 111.594 31.4063 113.729 31.4063C114.323 31.4063 115.999 31.7282 116.403 32.2922C116.701 32.614 117.052 33.0684 117.349 33.3902C117.538 33.3902 117.728 33.3639 117.917 33.3639L117.835 31.9967C116.863 31.2454 115.268 30.7627 113.865 30.7627C110.974 30.7627 109.028 32.6406 109.028 35.4824C109.028 37.6822 110.487 39.0241 113.297 39.9349C116.188 40.874 117.673 42.1613 117.673 44.2268C117.673 46.6935 116.106 48.3575 113.783 48.3575C113.054 48.3575 111.702 47.9811 110.243 47.3654C110.186 47.3344 110.139 47.2878 110.108 47.2312C109.784 46.8014 109.406 46.2657 109.082 45.8359H108.784C108.704 45.8359 108.596 45.8626 108.514 45.8626Z" fill="#545454"/>
<path d="M48.801 63.6156L47.1181 62.6103C47.0449 62.5656 46.9796 62.5955 46.9428 62.6567L45.0829 65.7259C45.0444 65.7874 45.0477 65.8568 45.1213 65.9016L46.8042 66.9072C46.8559 66.9385 46.8977 66.9319 46.9279 66.8822L47.0064 66.7529C47.0363 66.7028 47.023 66.663 46.9713 66.6334L45.4687 65.7341L46.2275 64.4833L47.4022 65.1865C47.4526 65.2165 47.4944 65.2115 47.5262 65.1602L47.6081 65.0256C47.6346 64.9809 47.6197 64.9427 47.5696 64.9114L46.3945 64.2096L47.1317 62.992L48.634 63.891C48.6857 63.921 48.7275 63.916 48.7576 63.8644L48.8329 63.7416C48.8449 63.7206 48.8483 63.6958 48.8424 63.6723C48.8364 63.6488 48.8216 63.6285 48.801 63.6156Z" fill="#545454"/>
<path d="M49.4161 67.6792C49.3611 67.6575 49.3226 67.6624 49.2991 67.6891C49.262 67.7362 49.2338 67.7896 49.2156 67.8467C49.2007 67.8832 49.204 67.9263 49.2358 67.9743C49.3929 68.1468 49.8288 68.3528 50.0194 68.4271C51.0808 68.8404 51.398 68.2896 51.5535 67.8996C51.9764 66.8279 50.1649 66.0003 50.4222 65.3481C50.6194 64.8489 50.9452 64.9052 51.4852 65.1161C51.717 65.206 51.9326 65.3326 52.1236 65.4909C52.172 65.5107 52.2171 65.5209 52.2403 65.4811C52.2638 65.4412 52.2837 65.4064 52.3006 65.3649C52.3081 65.3436 52.3102 65.3208 52.3067 65.2985C52.3031 65.2763 52.2941 65.2552 52.2804 65.2372C52.0804 65.0603 51.8517 64.9183 51.6039 64.8173C50.5292 64.3994 50.2518 64.867 50.0996 65.252C49.7337 66.1777 51.582 66.9128 51.2343 67.7901C50.977 68.4423 50.5978 68.3077 50.0831 68.107C49.7821 67.9892 49.5683 67.8151 49.4161 67.6792Z" fill="#545454"/>
<path d="M56.3959 66.1922L54.3103 65.7592C54.252 65.746 54.2135 65.7724 54.2016 65.829L54.1734 65.9632C54.1598 66.0211 54.1867 66.0609 54.2433 66.0728L55.1224 66.2551L54.4223 69.573C54.4074 69.6444 54.4339 69.7109 54.5175 69.7273L54.601 69.7458C54.6845 69.7622 54.7366 69.7125 54.7515 69.6428L55.4516 66.3232L56.329 66.5058C56.3877 66.5173 56.4261 66.4923 56.4377 66.4344L56.4662 66.2998C56.4795 66.2436 56.4526 66.2038 56.3959 66.1922Z" fill="#545454"/>
<path d="M58.1275 70.0332L58.1206 70.1112C58.1156 70.1826 58.1507 70.2441 58.2376 70.2507L58.3231 70.2573C58.4083 70.2622 58.4517 70.2076 58.4567 70.1346L58.4633 70.0566C58.4683 69.9852 58.4332 69.924 58.348 69.917L58.2611 69.9105C58.1759 69.9055 58.1325 69.9605 58.1275 70.0332Z" fill="#545454"/>
<path d="M60.9491 66.5693C60.904 66.5927 60.8739 66.6391 60.8772 66.6855C60.8772 66.6924 60.8722 66.6989 60.9259 66.82C60.9359 66.8648 60.9627 66.8829 61.0095 66.8812C61.3254 66.7753 61.5276 66.722 61.7579 66.7088C62.3161 66.6723 62.6403 66.6706 62.6821 67.3044C62.7325 68.0823 60.8639 68.517 60.9442 69.7381L60.9776 70.2541C60.981 70.3071 61.0277 70.337 61.0814 70.3321L63.048 70.2077C63.115 70.2024 63.1452 70.1745 63.1418 70.1162L63.1316 69.9652C63.1283 69.9073 63.0935 69.8823 63.0282 69.8875L61.2968 69.9968L61.2836 69.7944C61.2083 68.6381 63.0848 68.3146 63.0165 67.263C62.9897 66.8447 62.9347 66.3107 61.7964 66.3837C61.559 66.3985 61.1997 66.4551 60.9491 66.5693Z" fill="#545454"/>
<path d="M65.8627 65.7815C65.1255 65.9555 64.8616 66.5228 64.9919 67.0655L65.4397 68.9368C65.5667 69.4659 66.043 69.7828 66.7799 69.6088C67.5187 69.4344 67.7995 68.9385 67.6726 68.4093L67.2227 66.538C67.0941 65.9954 66.6012 65.6071 65.8627 65.7815ZM66.7066 69.2968C66.3138 69.3896 65.8776 69.3182 65.7556 68.8091L65.3343 67.0572C65.1974 66.4847 65.5468 66.1862 65.9376 66.0934C66.3287 66.0019 66.7766 66.1115 66.9138 66.6837L67.3331 68.4357C67.4551 68.945 67.0974 69.2057 66.7066 69.2968Z" fill="#545454"/>
<path d="M68.9438 64.9915C68.9106 65.028 68.897 65.0826 68.9156 65.1241C68.9189 65.131 68.9139 65.1392 69.0058 65.2353C69.031 65.2751 69.0624 65.2833 69.1042 65.2652C69.3684 65.0612 69.5404 64.9451 69.7529 64.8556C70.269 64.6381 70.5733 64.5301 70.8239 65.1142C71.1332 65.8309 69.5156 66.8562 69.9985 67.9826L70.2024 68.4571C70.2239 68.5068 70.2793 68.5183 70.3277 68.4969L72.1409 67.7306C72.2028 67.7055 72.2227 67.6674 72.1992 67.6144L72.1392 67.4749C72.1157 67.4203 72.0756 67.4104 72.0156 67.4351L70.4195 68.1103L70.3393 67.9227C69.8815 66.8579 71.5425 65.9339 71.1265 64.9648C70.9611 64.5801 70.7304 64.0941 69.681 64.537C69.4635 64.6298 69.1427 64.8006 68.9438 64.9915Z" fill="#545454"/>
<path d="M73.1075 62.902L72.7246 63.8161C72.6878 63.9073 72.6361 63.9853 72.6878 64.0682L72.7614 64.186C72.7966 64.2406 72.835 64.2557 72.8751 64.2307C72.9283 64.1951 72.9664 64.1414 72.9822 64.0797L73.3664 63.1425L73.4734 63.0777L75.2279 65.8866C75.2664 65.9478 75.3317 65.9761 75.4053 65.9313L75.4772 65.8866C75.5505 65.8415 75.5521 65.772 75.5137 65.7105L73.612 62.668C73.5735 62.6065 73.5102 62.5769 73.4366 62.6216L73.2076 62.7625C73.1625 62.7908 73.134 62.8454 73.1075 62.902Z" fill="#545454"/>
<path fill-rule="evenodd" clip-rule="evenodd" d="M95.2219 53.6368C89.3335 67.0578 75.8534 76.4406 60.1656 76.4406C44.4778 76.4406 30.9977 67.0578 25.1093 53.6368H24.4951C30.4186 67.3747 44.1596 77 60.1656 77C76.1713 77 89.9126 67.3747 95.8361 53.6368H95.2219ZM25.5595 22.3761C31.6653 9.48449 44.8653 0.559402 60.1656 0.559402C75.4659 0.559402 88.6659 9.48449 94.7717 22.3761H95.3936C89.248 9.16629 75.7851 0 60.1656 0C44.5461 0 31.0829 9.16662 24.9376 22.3761H25.5595Z" fill="#545454"/>
</g>
<defs>
<clipPath id="clip0_833_722">
<rect width="119" height="77" fill="white"/>
</clipPath>
</defs>
</svg>
